HIERARCHY
ROOT Hips
{
 OFFSET 0.000000 0.000000 0.000000
 CHANNELS 6 Xposition Yposition Zposition Yrotation Xrotation Zrotation
 JOINT Chest
 {
  OFFSET 0.000000 9.585900 0.002600
  CHANNELS 3 Yrotation Xrotation Zrotation
  JOINT Chest2
  {
   OFFSET 0.000000 9.601200 -0.005300
   CHANNELS 3 Yrotation Xrotation Zrotation
   JOINT Chest3
   {
    OFFSET 0.000000 9.561800 0.000000
    CHANNELS 3 Yrotation Xrotation Zrotation
    JOINT Chest4
    {
     OFFSET 0.000000 9.552100 0.000000
     CHANNELS 3 Yrotation Xrotation Zrotation
     JOINT Neck
     {
      OFFSET 0.000000 14.453000 0.000000
      CHANNELS 3 Yrotation Xrotation Zrotation
      JOINT Head
      {
       OFFSET 0.000000 8.936500 -0.011300
       CHANNELS 3 Yrotation Xrotation Zrotation
       End Site
       {
        OFFSET 0.000000 17.073600 -0.006000
       }
      }
     }
     JOINT RightCollar
     {
      OFFSET -2.921100 9.558500 0.000000
      CHANNELS 3 Yrotation Xrotation Zrotation
      JOINT RightShoulder
      {
       OFFSET -13.519700 0.000000 0.000000
       CHANNELS 3 Yrotation Xrotation Zrotation
       JOINT RightElbow
       {
        OFFSET 0.000000 -29.696600 0.000000
        CHANNELS 3 Yrotation Xrotation Zrotation
        JOINT RightWrist
        {
         OFFSET 0.000000 -24.004700 0.000000
         CHANNELS 3 Yrotation Xrotation Zrotation
         End Site
         {
          OFFSET 0.000000 -17.728500 0.000000
         }
        }
       }
      }
     }
     JOINT LeftCollar
     {
      OFFSET 2.921100 9.558500 0.000000
      CHANNELS 3 Yrotation Xrotation Zrotation
      JOINT LeftShoulder
      {
       OFFSET 13.519700 0.000000 0.000000
       CHANNELS 3 Yrotation Xrotation Zrotation
       JOINT LeftElbow
       {
        OFFSET 0.000000 -29.696600 0.000000
        CHANNELS 3 Yrotation Xrotation Zrotation
        JOINT LeftWrist
        {
         OFFSET 0.000000 -24.004700 0.000000
         CHANNELS 3 Yrotation Xrotation Zrotation
         End Site
         {
          OFFSET 0.000000 -17.728500 0.000000
         }
        }
       }
      }
     }
    }
   }
  }
 }
 JOINT RightHip
 {
  OFFSET -7.771700 -0.012900 -0.001300
  CHANNELS 3 Yrotation Xrotation Zrotation
  JOINT RightKnee
  {
   OFFSET 0.000000 -40.869800 0.001200
   CHANNELS 3 Yrotation Xrotation Zrotation
   JOINT RightAnkle
   {
    OFFSET 0.000000 -39.717900 0.002100
    CHANNELS 3 Yrotation Xrotation Zrotation
    JOINT RightToe
    {
     OFFSET 0.000000 -4.965400 11.033500
     CHANNELS 3 Yrotation Xrotation Zrotation
     End Site
     {
      OFFSET 0.000000 -1.423100 5.872300
     }
    }
   }
  }
 }
 JOINT LeftHip
 {
  OFFSET 7.771700 -0.012900 -0.001300
  CHANNELS 3 Yrotation Xrotation Zrotation
  JOINT LeftKnee
  {
   OFFSET 0.000000 -40.869800 0.001200
   CHANNELS 3 Yrotation Xrotation Zrotation
   JOINT LeftAnkle
   {
    OFFSET 0.000000 -39.717900 0.002100
    CHANNELS 3 Yrotation Xrotation Zrotation
    JOINT LeftToe
    {
     OFFSET 0.000000 -4.965400 11.033500
     CHANNELS 3 Yrotation Xrotation Zrotation
     End Site
     {
      OFFSET 0.000000 -1.423100 5.872300
     }
    }
   }
  }
 }
}
MOTION
Frames: 12
Frame Time: 0.008333
0.000000 85.388000 0.000000 0.000000 -5.767877 0.000000 0.000000 11.653817 0.000000 0.000000 -5.885947 0.000000 0.000000 -0.000000 0.000000 0.000000 -0.000000 0.000000 0.000000 12.528835 0.000000 0.000000 0.711642 0.000000 0.000000 -0.000000 0.000000 0.000000 0.000000 -90.000000 0.000000 -2.309062 0.000000 0.000000 2.309062 0.000000 0.000000 -0.000000 0.000000 0.000000 -0.000000 90.000000 0.000000 -2.309062 0.000000 0.000000 2.309062 0.000000 0.000000 8.520406 0.000000 0.000000 1.905762 0.000000 -0.000000 -4.658285 0.000000 0.000000 -0.000000 0.000000 0.000000 8.520406 0.000000 0.000000 1.905762 0.000000 -0.000000 -4.658285 0.000000 0.000000 -0.000000 0.000000
-62.737062 57.763691 11.592575 177.654715 -49.354115 -3.064011 3.481364 22.041699 3.164566 1.798332 12.612502 1.621688 2.319859 15.756720 2.104044 1.772575 12.667462 1.644261 -0.900001 18.228176 0.610623 -1.852111 -1.928764 1.414550 1.378444 2.983011 0.494944 1.592847 -15.730490 -10.987093 -29.182229 -9.719630 97.535689 -4.558241 2.657685 -6.587521 -10.179020 -0.303994 0.518599 1.774901 -10.732012 13.594561 24.453059 -15.364398 -94.707712 16.811390 -5.283555 9.983745 7.042976 -22.010538 -1.837378 -34.516357 74.630348 -38.995630 6.702318 -16.898250 13.281585 -0.011653 -0.012905 0.014106 -7.786340 -19.637038 5.243027 88.395499 80.553299 88.136130 1.250309 -21.734547 -19.286619 0.011799 0.027713 0.015735
-62.737648 57.765168 11.598236 177.659765 -49.344729 -3.071511 3.468674 22.058636 3.167498 1.777071 12.661032 1.624067 2.324185 15.729895 2.101619 1.768063 12.682665 1.636801 -0.930835 18.245782 0.552352 -1.935056 -1.848206 1.299399 1.369974 3.041286 0.467102 1.623287 -15.848080 -11.038660 -29.192750 -9.649464 97.614822 -4.407240 2.709254 -6.506696 -10.184427 -0.284457 0.506212 1.775486 -10.714583 13.664809 24.541356 -15.364177 -94.757105 16.756693 -5.314866 9.870813 7.041699 -22.018114 -1.836053 -34.503437 74.622614 -38.977515 6.719290 -16.897905 13.275333 -0.028578 -0.011801 0.010006 -7.795885 -19.645560 5.253822 88.335626 80.556166 88.065920 1.248051 -21.724662 -19.282503 0.009648 0.027745 0.016918
-62.738078 57.765963 11.605796 177.662950 -49.325427 -3.079953 3.458462 22.067450 3.167747 1.778065 12.664259 1.624770 2.312753 15.749013 2.104511 1.764158 12.699814 1.630700 -0.927752 18.203826 0.528449 -2.060885 -1.801570 1.207053 1.373652 3.086662 0.450235 1.650000 -15.953600 -11.050202 -29.238213 -9.724010 97.675324 -4.263227 2.759744 -6.425046 -10.196052 -0.276064 0.488759 1.763630 -10.671872 13.753726 24.680499 -15.470046 -94.841413 16.671413 -5.301142 9.718698 7.045250 -22.035898 -1.834496 -34.476932 74.610423 -38.937062 6.684720 -16.883794 13.273787 -0.006153 -0.004977 0.013247 -7.809327 -19.664722 5.269256 88.310998 80.559972 88.030759 1.248104 -21.719480 -19.280966 0.007926 0.029406 0.018853
-62.739432 57.769079 11.612218 177.664453 -49.321117 -3.081862 3.453315 22.095172 3.166895 1.780721 12.643359 1.623559 2.297899 15.795233 2.105946 1.759244 12.712833 1.623570 -0.976728 18.203611 0.482861 -2.142684 -1.885275 1.164692 1.388362 3.113818 0.446051 1.778293 -15.931349 -11.143108 -29.465027 -9.969160 97.825380 -4.093535 2.845513 -6.307740 -10.191843 -0.308626 0.481943 1.722184 -10.572917 13.842024 24.893039 -15.694057 -94.953685 16.497619 -5.227185 9.500115 7.049024 -22.038654 -1.836548 -34.465475 74.604906 -38.918407 6.674346 -16.883228 13.279562 -0.000422 0.001298 0.006932 -7.828699 -19.669239 5.283024 88.302351 80.565932 88.000416 1.245026 -21.712214 -19.275477 0.011090 0.026105 0.016861
-62.740979 57.771888 11.619494 177.668434 -49.311469 -3.084732 3.445089 22.116735 3.158430 1.777371 12.655445 1.621890 2.274360 15.868364 2.098345 1.780881 12.650402 1.621070 -1.032538 18.191115 0.446356 -2.224822 -2.026555 1.148629 1.404746 3.125434 0.447825 1.892609 -15.865670 -11.215247 -29.723472 -10.340632 97.964442 -3.890299 2.968168 -6.139036 -10.225696 -0.282606 0.432187 1.691899 -10.504421 13.971979 25.189655 -16.049531 -95.087874 16.213703 -5.108620 9.202149 7.052143 -22.047345 -1.841449 -34.452839 74.599828 -38.897644 6.677169 -16.878462 13.278968 -0.011033 -0.000481 0.002141 -7.839457 -19.678317 5.291558 88.239070 80.561199 87.917813 1.235472 -21.702030 -19.264758 0.010977 0.025189 0.012572
-62.741979 57.774994 11.626889 177.666462 -49.301362 -3.085892 3.439141 22.134741 3.151616 1.774188 12.668504 1.620538 2.269245 15.888126 2.092336 1.796586 12.607922 1.622697 -1.098367 18.182685 0.425218 -2.303634 -2.223552 1.149538 1.411016 3.127949 0.448866 1.990484 -15.751678 -11.267758 -30.003590 -10.833034 98.097841 -3.673470 3.123146 -5.929812 -10.271053 -0.233183 0.363356 1.643826 -10.422777 14.114079 25.572811 -16.552870 -95.246641 15.835488 -4.975071 8.855242 7.060750 -22.058562 -1.847962 -34.389911 74.594488 -38.812193 6.678857 -16.861580 13.264652 0.005977 -0.003458 0.002338 -7.842588 -19.687258 5.301605 88.131692 80.540639 87.783628 1.220600 -21.686574 -19.246580 -0.001622 0.031255 0.011967
-62.741305 57.778634 11.633970 177.661278 -49.292693 -3.093532 3.436203 22.155935 3.150763 1.766546 12.705140 1.612192 2.281208 15.886500 2.089940 1.775370 12.676905 1.616880 -1.187358 17.979477 0.415461 -2.310700 -2.425537 1.155711 1.466666 3.060160 0.462056 2.073855 -15.665704 -11.326528 -30.317845 -11.471294 98.235907 -3.470570 3.305517 -5.698061 -10.268112 -0.313572 0.327254 1.562143 -10.329835 14.244768 26.038353 -17.199179 -95.431875 15.392914 -4.852069 8.509375 7.073426 -22.068854 -1.848766 -34.354600 74.590330 -38.754851 6.698404 -16.853057 13.259523 0.008800 -0.006874 -0.002670 -7.849651 -19.694583 5.325824 88.112239 80.543052 87.752032 1.213645 -21.681184 -19.241518 0.002894 0.028503 0.010514
-62.740527 57.782126 11.640885 177.660856 -49.279741 -3.104041 3.436125 22.174676 3.150994 1.768894 12.696282 1.614732 2.287957 15.933344 2.078063 1.770066 12.667735 1.622123 -1.215220 17.850683 0.423187 -2.376875 -2.709515 1.204854 1.542620 3.092790 0.472132 2.099843 -15.601142 -11.368907 -30.655138 -12.266841 98.370035 -3.306424 3.498184 -5.457946 -10.286799 -0.322164 0.280670 1.455493 -10.249437 14.365216 26.558635 -17.952127 -95.613928 14.917096 -4.750912 8.184677 7.071872 -22.082831 -1.842392 -34.333792 74.581870 -38.722615 6.706552 -16.842876 13.256821 -0.008812 -0.013033 -0.004208 -7.860290 -19.703370 5.349242 88.078093 80.544554 87.705891 1.209035 -21.677306 -19.238740 0.007674 0.027739 0.009562
-62.740787 57.786582 11.646215 177.658730 -49.271923 -3.105299 3.451508 22.228215 3.140179 1.776576 12.723827 1.607777 2.295831 15.914373 2.081165 1.766345 12.638164 1.635575 -1.226572 17.767121 0.434704 -2.432070 -3.094153 1.294451 1.580152 3.102577 0.469947 2.142072 -15.493645 -11.388507 -31.011435 -13.211188 98.490797 -3.186098 3.684929 -5.218475 -10.298784 -0.338668 0.266151 1.330695 -10.161302 14.436740 27.102723 -18.767303 -95.757295 14.438523 -4.657449 7.867097 7.073988 -22.090613 -1.842233 -34.321146 74.573747 -38.698065 6.688835 -16.832184 13.258125 0.001253 -0.011954 -0.006360 -7.871952 -19.705814 5.369736 88.021588 80.544429 87.624113 1.200942 -21.670217 -19.231806 0.004715 0.028376 0.010676
-62.743684 57.791056 11.650324 177.633708 -49.262581 -3.072104 3.478852 22.264302 3.113975 1.785672 12.742018 1.601837 2.304010 15.918733 2.079418 1.767565 12.655636 1.638430 -1.230617 17.539809 0.483124 -2.453299 -3.443494 1.399364 1.604126 3.076008 0.474024 2.183847 -15.396532 -11.394621 -31.389708 -14.273564 98.595913 -3.090072 3.854127 -4.980506 -10.321312 -0.356789 0.243256 1.208297 -10.135902 14.524001 27.667186 -19.617960 -95.890816 14.007367 -4.543674 7.564297 7.100898 -22.100767 -1.863147 -34.308301 74.571877 -38.670315 6.668317 -16.803440 13.255891 0.024828 -0.028718 -0.007023 -7.859912 -19.714548 5.365910 87.977571 80.543716 87.560775 1.201500 -21.676349 -19.228695 -0.000093 0.042482 0.013453
-62.743665 57.795176 11.653830 177.634254 -49.245970 -3.075056 3.486575 22.265488 3.111643 1.789923 12.748685 1.599066 2.315632 15.943072 2.068604 1.793824 12.749469 1.595452 -1.217288 17.229313 0.591664 -2.456339 -3.812751 1.530307 1.597546 3.001395 0.505761 2.232526 -15.315085 -11.386455 -31.786435 -15.419378 98.686651 -3.014394 4.003900 -4.749666 -10.354618 -0.422536 0.281901 1.092355 -10.130752 14.584949 28.262567 -20.493450 -96.086399 13.691246 -4.387396 7.322985 7.100200 -22.116622 -1.865390 -34.288108 74.570689 -38.638061 6.672139 -16.805699 13.249447 0.036141 -0.028111 -0.005890 -7.872591 -19.726974 5.379294 87.914024 80.551053 87.475521 1.209419 -21.667572 -19.219274 -0.007333 0.044390 0.012186
